<?xml version="1.0" encoding="UTF-8" standalone="no" ?>
<!DOCTYPE svg PUBLIC "-//W3C//DTD SVG 1.1//EN" "http://www.w3.org/Graphics/SVG/1.1/DTD/svg11.dtd">
<svg xmlns="http://www.w3.org/2000/svg" xmlns:xlink="http://www.w3.org/1999/xlink" version="1.1" width="1080" height="1080" viewBox="0 0 1080 1080" xml:space="preserve">
<desc>Created with Fabric.js 5.2.4</desc>
<defs>
</defs>
<g transform="matrix(1 0 0 1 540 540)" id="8a41be92-07d6-493e-b3a7-343dae360bdf"  >
<rect style="stroke: none; stroke-width: 1; stroke-dasharray: none; stroke-linecap: butt; stroke-dashoffset: 0; stroke-linejoin: miter; stroke-miterlimit: 4; fill: rgb(255,255,255); fill-rule: nonzero; opacity: 1; visibility: hidden;" vector-effect="non-scaling-stroke"  x="-540" y="-540" rx="0" ry="0" width="1080" height="1080" />
</g>
<g transform="matrix(1 0 0 1 540 540)" id="8a8bd5bd-d114-4c8d-a6b2-e626ea4ba3d4"  >
</g>
<g transform="matrix(0.13 0 0 -0.13 540 540)"  >
<path style="stroke: none; stroke-width: 1; stroke-dasharray: none; stroke-linecap: butt; stroke-dashoffset: 0; stroke-linejoin: miter; stroke-miterlimit: 4; fill: rgb(0,0,0); fill-rule: nonzero; opacity: 1;" vector-effect="non-scaling-stroke"  transform=" translate(-5119.98, -5630)" d="M 5117 9075 C 5113 8976 5108 8839 5105 8770 C 5102 8701 5100 8619 5100 8586 L 5100 8528 L 5013 8641 C 4966 8704 4893 8799 4853 8853 C 4812 8906 4777 8950 4774 8950 C 4772 8950 4840 8846 4925 8719 C 5011 8592 5079 8483 5077 8477 C 5072 8460 4868 8408 4575 8349 C 4438 8321 4322 8296 4318 8292 C 4307 8281 4254 8084 4231 7969 C 4197 7800 4180 7617 4180 7422 C 4180 7241 4193 7070 4210 7018 C 4217 6995 4205 6969 4113 6813 C 3837 6346 3743 6188 3615 5970 C 3539 5841 3475 5733 3474 5731 C 3472 5730 3400 5767 3312 5814 C 3225 5861 3149 5900 3143 5900 C 3137 5900 3129 5892 3125 5883 C 3116 5859 3135 5846 3300 5755 L 3440 5679 L 3424 5648 C 3415 5630 3328 5481 3230 5316 C 3084 5067 2897 4747 2628 4287 C 2606 4249 2583 4217 2577 4216 C 2570 4214 2500 4192 2420 4166 C 2168 4083 1962 3968 1760 3794 C 1621 3674 1490 3533 1490 3502 C 1490 3441 1604 3085 1665 2957 C 1702 2880 1730 2867 1803 2896 C 1817 2901 1812 2887 1784 2839 C 1728 2743 1736 2747 1667 2782 C 1602 2814 1149 2992 1144 2987 C 1142 2985 1196 2960 1263 2930 C 1449 2849 1701 2727 1695 2722 C 1693 2719 1577 2704 1438 2689 C 1299 2673 1176 2659 1165 2656 C 1145 2652 1273 2656 1548 2668 C 1626 2672 1690 2674 1690 2673 C 1690 2668 1413 2209 1380 2160 C 1334 2091 1328 2080 1333 2080 C 1336 2080 1405 2178 1486 2298 C 1702 2614 1740 2666 1741 2644 C 1742 2634 1747 2486 1754 2315 L 1765 2005 L 1778 2240 C 1785 2369 1790 2519 1790 2573 L 1790 2670 L 3445 2670 L 5100 2670 L 5100 2495 L 5100 2320 L 5125 2320 C 5139 2320 5151 2326 5152 2333 C 5154 2339 5155 2417 5155 2505 L 5155 2665 L 6808 2668 L 8460 2670 L 8461 2613 C 8461 2581 8467 2434 8474 2285 L 8486 2015 L 8493 2160 C 8498 2240 8504 2385 8508 2483 L 8515 2662 L 8559 2598 C 8584 2564 8666 2443 8743 2330 C 8950 2026 8949 2031 8727 2402 C 8646 2538 8575 2652 8570 2655 C 8542 2673 8579 2674 8777 2663 C 9016 2650 9085 2648 9079 2654 C 9077 2656 8974 2670 8850 2684 C 8726 2699 8609 2713 8590 2717 L 8555 2722 L 8640 2765 C 8687 2789 8809 2846 8912 2892 C 9015 2937 9097 2976 9096 2978 C 9088 2985 8653 2817 8570 2775 L 8522 2751 L 8480 2821 C 8437 2894 8434 2909 8468 2891 C 8501 2874 8535 2878 8558 2902 C 8598 2945 8705 3237 8749 3424 C 8769 3508 8769 3515 8754 3539 C 8719 3594 8490 3809 8394 3878 C 8186 4026 8015 4111 7786 4180 L 7668 4216 L 7528 4455 C 7451 4587 7351 4758 7305 4835 C 7217 4984 6820 5661 6814 5671 C 6811 5677 6993 5781 7098 5834 C 7130 5850 7141 5882 7120 5895 C 7114 5899 7036 5863 6946 5816 L 6782 5730 L 6677 5908 C 6619 6005 6453 6286 6307 6532 L 6041 6980 L 6051 7042 C 6096 7317 6071 7770 5995 8074 C 5970 8171 5931 8300 5926 8300 C 5877 8300 5351 8416 5238 8451 L 5170 8473 L 5192 8509 C 5211 8539 5420 8858 5483 8952 C 5494 8968 5500 8980 5498 8980 C 5495 8980 5417 8876 5324 8750 L 5155 8520 L 5148 8662 C 5143 8741 5137 8906 5132 9030 L 5124 9255 L 5117 9075 z M 5179 8367 C 5203 8327 5284 8189 5358 8060 C 5432 7931 5528 7767 5570 7695 C 5612 7624 5714 7450 5795 7310 C 6022 6919 6142 6714 6275 6490 C 6615 5917 6731 5718 6728 5709 C 6726 5703 6668 5666 6600 5626 C 6531 5586 6410 5515 6330 5468 C 6019 5285 5850 5190 5838 5190 C 5836 5190 5866 5254 5905 5333 C 6115 5758 6161 6177 6043 6610 C 5987 6819 5904 6993 5636 7459 C 5549 7609 5462 7760 5441 7794 C 5421 7827 5357 7937 5301 8038 C 5244 8138 5188 8227 5177 8235 C 5147 8256 5094 8254 5071 8231 C 5061 8221 5041 8192 5027 8169 C 4938 8013 4684 7574 4589 7410 C 4421 7121 4280 6836 4236 6698 C 4165 6474 4156 6413 4156 6150 C 4155 5927 4157 5909 4184 5796 C 4224 5627 4271 5495 4350 5336 C 4389 5259 4418 5194 4415 5192 C 4410 5186 4302 5246 3930 5464 C 3751 5568 3586 5664 3563 5678 C 3539 5691 3520 5705 3520 5710 C 3520 5714 3590 5836 3677 5981 C 4074 6651 4154 6787 4250 6955 C 4307 7054 4397 7209 4450 7300 C 4619 7587 4801 7900 4883 8045 C 5005 8260 5117 8440 5129 8440 C 5132 8440 5155 8407 5179 8367 z M 5295 7204 C 5382 7182 5490 7127 5562 7069 C 5713 6948 5802 6804 5840 6616 L 5852 6558 L 5816 6528 C 5796 6512 5780 6494 5780 6489 C 5780 6484 5798 6469 5819 6454 C 5856 6430 5858 6427 5853 6387 C 5820 6113 5652 5873 5404 5747 C 5335 5712 5218 5678 5184 5683 C 5168 5685 5149 5683 5143 5677 C 5136 5672 5130 5669 5129 5671 C 5123 5698 5126 5717 5136 5717 C 5143 5717 5146 5710 5143 5701 C 5139 5687 5139 5687 5149 5700 C 5158 5712 5160 5713 5160 5701 C 5160 5693 5163 5689 5166 5693 C 5169 5696 5162 5713 5149 5731 C 5128 5760 5126 5761 5114 5745 C 5107 5735 5103 5723 5106 5718 C 5109 5713 5107 5711 5101 5712 C 5096 5714 5085 5707 5078 5697 C 5065 5679 5061 5679 5000 5695 C 4964 5704 4893 5731 4841 5756 C 4790 5780 4743 5797 4737 5793 C 4732 5790 4730 5791 4733 5797 C 4737 5802 4711 5830 4676 5858 C 4528 5976 4400 6222 4400 6386 C 4400 6423 4405 6433 4438 6460 L 4475 6491 L 4436 6524 L 4398 6557 L 4410 6616 C 4474 6927 4721 7175 5012 7219 C 5090 7231 5215 7224 5295 7204 z M 5889 6943 C 6164 6394 6137 5769 5814 5218 C 5763 5131 5763 5131 5565 5091 C 5377 5054 5305 5046 5125 5046 C 4913 5046 4800 5061 4514 5127 C 4478 5135 4338 5401 4275 5581 C 4143 5956 4140 6323 4265 6696 C 4298 6795 4379 6984 4386 6977 C 4388 6976 4373 6934 4354 6886 C 4222 6554 4194 6137 4280 5787 C 4308 5673 4370 5499 4381 5506 C 4386 5509 4387 5504 4384 5496 C 4379 5482 4442 5353 4506 5247 C 4529 5209 4543 5197 4575 5189 C 4645 5170 4812 5142 4890 5136 C 4976 5130 4959 5134 4806 5156 C 4746 5164 4688 5176 4677 5181 C 4667 5187 4636 5194 4608 5196 C 4575 5199 4552 5207 4544 5218 C 4537 5227 4534 5237 4536 5239 C 4538 5242 4546 5236 4553 5226 C 4565 5210 4567 5210 4592 5229 C 4606 5241 4623 5250 4628 5250 C 4635 5250 4637 5273 4635 5308 C 4633 5339 4633 5355 4636 5343 C 4643 5315 4655 5314 4677 5340 C 4687 5351 4700 5360 4707 5360 C 4714 5360 4720 5369 4720 5379 C 4720 5390 4729 5401 4739 5405 C 4750 5408 4761 5417 4764 5425 C 4767 5433 4776 5440 4785 5440 C 4793 5440 4800 5449 4800 5459 C 4800 5470 4809 5481 4819 5485 C 4830 5488 4841 5497 4844 5505 C 4848 5516 4865 5520 4905 5520 L 4960 5520 L 4960 5560 C 4960 5598 4961 5600 4993 5600 C 5010 5600 5034 5602 5045 5604 C 5056 5606 5059 5605 5053 5603 C 5045 5600 5040 5582 5040 5559 L 5040 5520 L 5200 5520 C 5336 5520 5360 5522 5360 5535 C 5360 5543 5364 5550 5369 5550 C 5374 5550 5383 5543 5390 5535 C 5397 5527 5410 5520 5419 5519 C 5430 5519 5428 5515 5412 5508 C 5385 5495 5388 5476 5418 5472 C 5430 5470 5440 5462 5440 5454 C 5440 5446 5450 5440 5464 5440 C 5478 5440 5492 5436 5495 5430 C 5506 5412 5520 5420 5520 5445 C 5520 5474 5532 5477 5551 5454 C 5558 5445 5573 5440 5586 5443 C 5603 5446 5606 5443 5602 5428 C 5600 5418 5603 5410 5611 5410 C 5618 5410 5631 5403 5641 5394 C 5656 5381 5674 5374 5703 5371 C 5718 5369 5710 5287 5693 5274 C 5676 5261 5676 5260 5693 5266 C 5706 5271 5710 5267 5710 5246 C 5710 5232 5706 5220 5700 5220 C 5695 5220 5694 5227 5697 5237 C 5701 5248 5700 5251 5691 5246 C 5685 5242 5681 5231 5682 5223 C 5685 5205 5635 5186 5610 5196 C 5599 5200 5598 5198 5606 5190 C 5614 5182 5631 5182 5671 5192 C 5720 5204 5725 5208 5722 5230 C 5721 5248 5723 5251 5729 5241 C 5735 5231 5752 5253 5789 5321 C 5817 5373 5838 5421 5835 5428 C 5832 5435 5834 5439 5839 5436 C 5851 5428 5904 5556 5895 5571 C 5890 5578 5891 5581 5898 5576 C 5904 5572 5918 5600 5934 5647 C 6054 6011 6057 6391 5944 6758 C 5925 6820 5894 6905 5875 6946 C 5856 6987 5843 7020 5845 7020 C 5848 7020 5867 6985 5889 6943 z M 4755 5780 C 4752 5775 4743 5770 4737 5770 C 4730 5770 4731 5774 4740 5780 C 4759 5792 4763 5792 4755 5780 z M 4835 5733 C 4844 5737 4849 5736 4846 5731 C 4843 5726 4832 5720 4822 5718 C 4809 5714 4804 5719 4802 5734 C 4801 5749 4803 5751 4809 5741 C 4814 5733 4825 5730 4835 5733 z M 5420 5736 C 5420 5734 5413 5729 5404 5726 C 5396 5723 5392 5724 5395 5730 C 5401 5740 5420 5744 5420 5736 z M 5437 5718 C 5437 5711 5425 5704 5411 5703 L 5385 5702 L 5410 5716 C 5424 5723 5435 5729 5436 5730 C 5436 5730 5437 5724 5437 5718 z M 4928 5703 C 4946 5699 4948 5695 4938 5689 C 4921 5677 4907 5678 4915 5689 C 4918 5694 4912 5701 4903 5703 C 4893 5706 4890 5708 4895 5709 C 4901 5709 4916 5707 4928 5703 z M 4870 5696 C 4870 5694 4863 5689 4854 5686 C 4846 5683 4842 5684 4845 5690 C 4851 5700 4870 5704 4870 5696 z M 5250 5665 C 5243 5657 5228 5650 5216 5650 C 5199 5651 5200 5653 5225 5665 C 5264 5683 5265 5683 5250 5665 z M 5180 5650 C 5160 5637 5147 5637 5155 5650 C 5158 5656 5169 5660 5178 5660 C 5193 5660 5193 5658 5180 5650 z M 4218 5268 C 4340 5202 4440 5144 4440 5139 C 4440 5134 4406 5130 4365 5130 C 4185 5130 3936 5086 3743 5019 C 3364 4888 3095 4691 2848 4362 C 2726 4199 2650 4080 2365 3605 C 1920 2862 1940 2900 1967 2843 C 1999 2776 1960 2779 2798 2783 C 3618 2787 3630 2787 3862 2846 C 3998 2880 4086 2913 4222 2980 C 4580 3158 4850 3429 5050 3810 L 5105 3915 L 5107 3615 C 5109 3450 5106 3181 5102 3017 L 5095 2719 L 3438 2715 C 2150 2712 1780 2714 1780 2723 C 1780 2730 1818 2800 1864 2880 C 2050 3203 2137 3353 2240 3525 C 2375 3752 2633 4194 2730 4365 C 2771 4437 2927 4704 3078 4960 C 3229 5216 3382 5475 3418 5537 L 3484 5649 L 3739 5518 C 3880 5446 4095 5333 4218 5268 z M 6826 5553 C 6857 5499 6938 5363 7005 5250 C 7195 4931 7574 4281 7605 4221 C 7620 4191 7688 4072 7757 3956 C 7827 3840 7936 3655 8000 3545 C 8064 3435 8157 3278 8205 3195 C 8413 2841 8469 2744 8475 2730 C 8480 2717 8357 2714 7448 2712 C 6880 2710 6131 2712 5784 2716 L 5153 2723 L 5147 3019 C 5143 3182 5137 3453 5133 3623 C 5129 3805 5130 3930 5136 3930 C 5141 3930 5164 3892 5188 3846 C 5452 3329 5881 2973 6394 2845 C 6624 2788 6625 2788 7447 2783 C 8137 2779 8211 2780 8240 2795 C 8276 2814 8305 2871 8295 2907 C 8290 2930 8183 3113 7887 3605 C 7452 4329 7328 4502 7120 4675 C 6899 4859 6619 5002 6345 5069 C 6229 5098 6012 5130 5934 5130 C 5900 5130 5858 5133 5841 5136 C 5809 5143 5809 5143 5892 5189 C 5969 5232 6086 5295 6575 5553 C 6674 5605 6758 5649 6762 5649 C 6766 5650 6794 5606 6826 5553 z M 5023 5633 C 5010 5631 4990 5631 4978 5633 C 4965 5635 4975 5637 5000 5637 C 5025 5637 5035 5635 5023 5633 z M 5220 5626 C 5220 5624 5213 5619 5204 5616 C 5196 5613 5192 5614 5195 5620 C 5201 5630 5220 5634 5220 5626 z M 4873 5603 C 4866 5601 4854 5601 4848 5603 C 4841 5606 4846 5608 4860 5608 C 4874 5608 4879 5606 4873 5603 z M 4720 5530 C 4720 5525 4712 5520 4703 5520 C 4688 5520 4687 5522 4700 5530 C 4719 5542 4720 5542 4720 5530 z M 5814 5414 C 5818 5404 5816 5401 5808 5406 C 5800 5411 5799 5408 5803 5396 C 5808 5385 5806 5381 5798 5386 C 5790 5391 5789 5388 5793 5376 C 5797 5366 5796 5361 5790 5365 C 5784 5368 5780 5360 5780 5346 C 5780 5332 5775 5318 5769 5314 C 5762 5310 5760 5315 5764 5329 C 5767 5340 5773 5360 5776 5371 C 5780 5385 5778 5390 5771 5386 C 5764 5381 5763 5385 5767 5395 C 5771 5407 5775 5408 5780 5400 C 5785 5391 5790 5394 5795 5409 C 5803 5434 5806 5435 5814 5414 z M 4477 5378 C 4474 5370 4471 5373 4471 5384 C 4470 5395 4473 5401 4476 5397 C 4479 5394 4480 5385 4477 5378 z M 4557 5298 C 4554 5291 4552 5296 4552 5310 C 4552 5324 4554 5329 4557 5323 C 4559 5316 4559 5304 4557 5298 z M 4520 5299 C 4520 5293 4516 5292 4510 5295 C 4505 5298 4500 5306 4500 5311 C 4500 5317 4505 5318 4510 5315 C 4516 5312 4520 5304 4520 5299 z M 4540 5265 C 4540 5253 4521 5253 4517 5265 C 4513 5274 4516 5277 4526 5273 C 4533 5270 4540 5266 4540 5265 z M 4557 5258 C 4554 5250 4551 5253 4551 5264 C 4550 5275 4553 5281 4556 5277 C 4559 5274 4560 5265 4557 5258 z M 5740 5276 C 5740 5273 5736 5268 5730 5265 C 5725 5262 5720 5264 5720 5269 C 5720 5275 5725 5280 5730 5280 C 5736 5280 5740 5278 5740 5276 z M 4493 5073 C 4522 5026 5070 4068 5094 4022 L 5111 3988 L 5049 3862 C 4798 3360 4391 3015 3886 2880 C 3740 2841 3712 2843 3827 2885 C 3950 2929 4121 3012 4250 3090 C 4380 3168 4523 3278 4514 3292 C 4510 3299 4512 3300 4519 3296 C 4533 3287 4662 3408 4653 3423 C 4650 3429 4652 3430 4658 3426 C 4671 3418 4712 3469 4703 3483 C 4700 3488 4702 3490 4708 3486 C 4713 3483 4732 3497 4749 3519 C 4783 3562 4789 3579 4763 3559 C 4747 3548 4747 3548 4758 3560 C 4765 3568 4776 3575 4782 3575 C 4806 3575 5030 3949 5030 3988 C 5030 3994 4992 4063 4947 4142 C 4901 4221 4836 4335 4802 4395 C 4733 4519 4691 4581 4744 4479 C 4763 4442 4777 4410 4775 4408 C 4772 4405 4779 4395 4789 4386 C 4800 4376 4806 4361 4803 4352 C 4798 4341 4800 4339 4810 4345 C 4820 4351 4822 4349 4817 4336 C 4813 4327 4814 4321 4818 4324 C 4830 4331 4862 4272 4854 4257 C 4850 4251 4850 4248 4855 4252 C 4866 4263 4901 4204 4894 4186 C 4891 4178 4893 4169 4899 4165 C 4906 4161 4907 4166 4903 4177 C 4898 4191 4900 4193 4910 4183 C 4917 4177 4924 4160 4925 4147 C 4929 4114 4949 4078 4960 4085 C 4969 4091 5020 4005 5020 3983 C 5020 3971 5017 3970 5006 3979 C 4986 3996 4955 3947 4970 3921 C 4983 3895 4983 3887 4968 3896 C 4961 3901 4960 3899 4965 3891 C 4973 3877 4932 3827 4919 3835 C 4905 3844 4899 3821 4910 3800 C 4917 3787 4917 3780 4910 3780 C 4905 3780 4900 3785 4900 3792 C 4900 3798 4897 3800 4894 3797 C 4890 3793 4892 3784 4899 3777 C 4908 3766 4903 3754 4879 3724 C 4840 3674 4835 3671 4844 3695 C 4850 3711 4849 3712 4839 3703 C 4829 3693 4830 3688 4840 3675 C 4847 3667 4851 3660 4849 3659 C 4822 3652 4787 3656 4783 3666 C 4780 3674 4769 3680 4759 3680 C 4744 3680 4740 3688 4739 3718 C 4739 3738 4735 3764 4730 3775 L 4721 3795 L 4720 3775 C 4719 3764 4719 3747 4720 3736 C 4722 3718 4721 3718 4697 3736 C 4683 3747 4676 3757 4681 3758 C 4686 3760 4690 3779 4690 3801 C 4690 3833 4687 3840 4670 3840 C 4653 3840 4650 3847 4650 3880 C 4650 3913 4647 3920 4630 3920 C 4613 3920 4610 3927 4610 3960 C 4610 3993 4607 4000 4590 4000 C 4573 4000 4570 4007 4570 4040 C 4570 4073 4567 4080 4550 4080 C 4533 4080 4530 4087 4530 4120 C 4530 4153 4526 4160 4511 4160 C 4500 4160 4490 4169 4486 4183 C 4476 4220 4479 4240 4495 4240 C 4503 4240 4510 4233 4510 4225 C 4510 4217 4515 4210 4521 4210 C 4527 4210 4530 4219 4527 4230 C 4524 4241 4525 4250 4530 4250 C 4546 4250 4561 4306 4552 4331 C 4538 4367 4504 4393 4478 4388 L 4455 4384 L 4452 4589 C 4450 4702 4444 4797 4439 4798 C 4434 4800 4430 4824 4430 4851 C 4430 4890 4427 4898 4415 4894 C 4405 4890 4400 4874 4400 4844 C 4400 4820 4396 4800 4390 4800 C 4385 4800 4380 4818 4380 4840 C 4380 4862 4376 4880 4370 4880 C 4365 4880 4360 4900 4360 4925 C 4360 4965 4363 4970 4383 4971 C 4404 4972 4404 4972 4380 4980 C 4357 4987 4356 4988 4374 4995 C 4393 5003 4393 5004 4374 5011 C 4361 5017 4367 5018 4393 5016 C 4433 5013 4466 4991 4443 4983 C 4421 4975 4429 4964 4455 4964 L 4479 4964 L 4460 4995 C 4442 5023 4436 5025 4373 5028 C 4224 5035 3950 4991 3760 4930 C 3624 4885 3419 4784 3283 4693 C 3152 4606 2975 4442 2870 4312 C 2835 4267 2804 4233 2802 4235 C 2795 4242 2891 4378 2969 4471 C 3296 4863 3807 5088 4417 5108 C 4468 5110 4471 5109 4493 5073 z M 6001 5100 C 6352 5065 6663 4958 6934 4779 C 7044 4706 7177 4594 7254 4509 C 7316 4441 7417 4306 7436 4266 L 7451 4235 L 7428 4261 C 7415 4275 7374 4324 7335 4369 C 7074 4678 6662 4912 6225 4999 C 6139 5016 5917 5040 5846 5040 C 5822 5040 5783 4982 5680 4795 C 5662 4762 5638 4719 5626 4700 C 5610 4673 5610 4668 5622 4678 C 5632 4686 5645 4688 5651 4684 C 5659 4680 5660 4681 5656 4689 C 5651 4696 5651 4713 5655 4728 C 5660 4749 5663 4751 5671 4739 C 5679 4729 5680 4731 5675 4748 C 5671 4763 5674 4772 5684 4776 C 5693 4779 5700 4792 5700 4804 C 5700 4821 5702 4822 5710 4810 C 5719 4797 5720 4797 5720 4810 C 5720 4823 5721 4823 5730 4810 C 5735 4802 5743 4799 5747 4804 C 5751 4809 5749 4815 5743 4817 C 5727 4823 5726 4880 5741 4880 C 5746 4880 5748 4876 5745 4870 C 5742 4865 5743 4852 5749 4843 C 5757 4829 5758 4831 5755 4856 C 5753 4881 5756 4890 5775 4898 C 5797 4908 5828 4970 5810 4970 C 5805 4970 5799 4961 5795 4951 C 5792 4940 5783 4926 5775 4920 C 5767 4913 5770 4925 5783 4948 C 5799 4978 5808 4986 5817 4979 C 5830 4967 5819 4927 5795 4900 C 5784 4888 5782 4842 5783 4687 C 5785 4531 5782 4488 5772 4481 C 5761 4475 5759 4454 5763 4399 C 5765 4358 5765 4342 5763 4363 C 5760 4387 5754 4400 5744 4400 C 5733 4400 5730 4383 5730 4320 C 5730 4250 5732 4240 5748 4240 C 5761 4240 5758 4234 5735 4215 C 5719 4202 5699 4191 5693 4190 C 5686 4190 5680 4180 5680 4168 C 5680 4156 5670 4136 5659 4123 C 5645 4109 5635 4083 5632 4050 C 5629 4017 5623 4000 5614 4000 C 5606 4000 5600 3991 5600 3981 C 5600 3970 5591 3959 5581 3955 C 5570 3952 5559 3943 5556 3935 C 5553 3927 5544 3920 5535 3920 C 5524 3920 5520 3909 5520 3880 L 5520 3840 L 5480 3840 C 5446 3840 5440 3837 5440 3820 C 5440 3802 5437 3801 5420 3810 C 5409 3816 5400 3825 5400 3830 C 5400 3836 5409 3840 5420 3840 C 5434 3840 5440 3847 5440 3861 C 5440 3880 5435 3882 5395 3878 C 5350 3875 5349 3876 5355 3900 C 5359 3919 5358 3921 5350 3910 C 5344 3900 5340 3899 5340 3908 C 5340 3914 5335 3920 5329 3920 C 5324 3920 5322 3915 5326 3909 C 5329 3903 5328 3895 5322 3891 C 5315 3887 5314 3874 5317 3860 L 5324 3835 L 5331 3860 C 5338 3884 5338 3885 5339 3862 C 5340 3847 5344 3841 5352 3846 C 5359 3850 5360 3849 5356 3841 C 5352 3835 5344 3832 5339 3835 C 5334 3839 5330 3835 5330 3828 C 5329 3821 5322 3828 5314 3843 C 5306 3858 5302 3879 5305 3890 C 5308 3900 5307 3911 5302 3914 C 5282 3926 5282 3875 5302 3836 C 5338 3765 5370 3719 5380 3725 C 5385 3728 5392 3725 5396 3719 C 5400 3711 5399 3710 5392 3714 C 5373 3726 5378 3709 5406 3668 C 5421 3647 5437 3633 5442 3636 C 5453 3643 5480 3622 5480 3606 C 5480 3600 5473 3604 5465 3614 C 5441 3646 5436 3624 5460 3591 C 5484 3556 5492 3552 5484 3578 C 5479 3592 5480 3592 5488 3580 C 5494 3572 5496 3562 5494 3558 C 5486 3545 5550 3469 5562 3476 C 5569 3481 5570 3478 5565 3471 C 5561 3464 5567 3449 5581 3434 C 5599 3414 5606 3412 5619 3423 C 5633 3433 5633 3433 5623 3419 C 5612 3406 5613 3400 5628 3386 C 5638 3377 5650 3373 5654 3377 C 5658 3382 5660 3379 5658 3371 C 5653 3351 5818 3209 5939 3128 C 6091 3027 6347 2906 6493 2865 C 6580 2840 6557 2838 6450 2860 C 6261 2900 6014 3002 5865 3103 C 5591 3288 5360 3558 5194 3888 L 5142 3991 L 5179 4058 C 5199 4095 5344 4347 5500 4618 L 5784 5110 L 5841 5110 C 5872 5110 5944 5105 6001 5100 z M 4815 5039 C 5073 5000 5340 5012 5624 5075 C 5684 5089 5735 5098 5738 5096 C 5740 5094 5708 5034 5667 4963 C 5626 4893 5506 4684 5400 4500 C 5128 4028 5130 4030 5125 4030 C 5123 4030 5107 4056 5089 4088 C 5071 4119 4939 4352 4794 4605 C 4649 4858 4528 5073 4525 5081 C 4519 5096 4527 5096 4597 5079 C 4640 5068 4738 5051 4815 5039 z M 4203 5003 C 4196 5001 4182 5001 4173 5003 C 4163 5006 4169 5008 4185 5008 C 4202 5008 4209 5006 4203 5003 z M 4137 4994 C 4134 4991 4125 4990 4118 4993 C 4110 4996 4113 4999 4124 4999 C 4135 5000 4141 4997 4137 4994 z M 4313 4983 C 4306 4981 4292 4981 4283 4983 C 4273 4986 4279 4988 4295 4988 C 4312 4988 4319 4986 4313 4983 z M 5832 4902 C 5836 4890 5831 4884 5819 4883 C 5803 4881 5802 4884 5813 4901 C 5827 4924 5827 4924 5832 4902 z M 4347 4738 C 4345 4725 4343 4735 4343 4760 C 4343 4785 4345 4795 4347 4783 C 4349 4770 4349 4750 4347 4738 z M 6770 4479 L 6808 4523 L 6882 4505 C 7029 4470 7157 4394 7265 4278 C 7422 4111 7483 3954 7482 3720 C 7481 3531 7437 3400 7328 3265 C 7255 3173 7180 3113 7069 3055 C 6941 2989 6837 2967 6680 2972 C 6570 2977 6545 2981 6474 3009 C 6174 3126 5997 3363 5954 3710 C 5950 3741 5940 3771 5931 3778 C 5917 3790 5918 3790 5935 3781 C 5950 3774 5966 3777 6002 3797 C 6029 3812 6050 3826 6050 3829 C 6050 3833 6028 3850 6000 3868 C 5959 3895 5952 3904 5960 3918 C 5974 3942 6011 4052 6013 4072 C 6014 4081 6016 4087 6019 4085 C 6021 4082 6039 4108 6059 4143 C 6079 4177 6133 4244 6180 4291 C 6302 4413 6417 4477 6585 4515 L 6645 4528 L 6689 4482 L 6733 4435 L 6770 4479 z M 3489 4479 L 3525 4438 L 3555 4480 C 3585 4521 3586 4521 3635 4516 C 3695 4509 3804 4473 3880 4435 C 4043 4352 4195 4182 4257 4010 C 4295 3905 4295 3905 4245 3870 C 4219 3852 4200 3834 4202 3828 C 4204 3822 4224 3808 4245 3796 C 4267 3785 4287 3772 4291 3767 C 4301 3754 4281 3618 4255 3527 C 4189 3295 4056 3138 3837 3034 C 3728 2983 3651 2966 3530 2967 C 3398 2969 3301 2993 3177 3057 C 3104 3095 3067 3122 2994 3195 C 2919 3269 2895 3300 2861 3370 C 2802 3492 2779 3591 2778 3725 C 2777 3899 2820 4047 2908 4177 C 2958 4250 3088 4374 3164 4419 C 3221 4453 3399 4520 3434 4520 C 3444 4520 3469 4502 3489 4479 z M 4494 4343 C 4502 4323 4495 4316 4475 4323 C 4467 4327 4460 4338 4460 4349 C 4460 4373 4485 4368 4494 4343 z M 4144 4312 C 4147 4307 4143 4303 4135 4303 C 4127 4303 4123 4307 4126 4312 C 4129 4316 4133 4320 4135 4320 C 4137 4320 4141 4316 4144 4312 z M 4457 4178 C 4455 4165 4453 4175 4453 4200 C 4453 4225 4455 4235 4457 4223 C 4459 4210 4459 4190 4457 4178 z M 4233 4215 C 4230 4206 4225 4201 4223 4204 C 4220 4207 4221 4213 4225 4219 C 4234 4235 4240 4232 4233 4215 z M 4960 4096 C 4960 4084 4955 4089 4941 4120 C 4930 4144 4930 4144 4944 4126 C 4953 4115 4960 4102 4960 4096 z M 5730 4010 C 5730 4005 5726 4000 5720 4000 C 5715 4000 5710 4005 5710 4010 C 5710 4016 5715 4020 5720 4020 C 5726 4020 5730 4016 5730 4010 z M 4560 3984 C 4560 3976 4556 3972 4550 3975 C 4545 3978 4540 3985 4540 3991 C 4540 3996 4545 4000 4550 4000 C 4556 4000 4560 3993 4560 3984 z M 4997 3933 C 4988 3913 4985 3912 4978 3924 C 4973 3933 4974 3947 4982 3959 C 4999 3986 5012 3964 4997 3933 z M 4595 3910 C 4592 3905 4582 3900 4574 3900 C 4566 3900 4560 3905 4560 3910 C 4560 3916 4569 3920 4581 3920 C 4592 3920 4598 3916 4595 3910 z M 4305 3880 C 4308 3875 4306 3870 4301 3870 C 4295 3870 4290 3875 4290 3880 C 4290 3886 4292 3890 4294 3890 C 4297 3890 4302 3886 4305 3880 z M 4933 3813 C 4930 3806 4924 3803 4919 3806 C 4905 3814 4908 3827 4924 3827 C 4932 3827 4936 3821 4933 3813 z M 5440 3756 C 5440 3754 5432 3746 5423 3739 C 5407 3726 5406 3727 5419 3743 C 5432 3759 5440 3764 5440 3756 z M 5441 3666 C 5446 3669 5460 3664 5472 3656 C 5484 3647 5489 3640 5483 3640 C 5476 3640 5468 3645 5465 3650 C 5461 3656 5451 3659 5443 3658 C 5434 3656 5426 3661 5424 3668 C 5423 3675 5424 3676 5427 3670 C 5429 3665 5436 3662 5441 3666 z M 5507 3598 C 5504 3591 5502 3596 5502 3610 C 5502 3624 5504 3629 5507 3623 C 5509 3616 5509 3604 5507 3598 z M 4770 3596 C 4770 3594 4764 3587 4756 3581 C 4745 3572 4740 3572 4734 3581 C 4730 3588 4731 3590 4738 3586 C 4744 3583 4751 3584 4755 3590 C 4761 3600 4770 3604 4770 3596 z M 4696 3508 C 4700 3501 4699 3498 4695 3503 C 4690 3507 4679 3503 4669 3494 C 4656 3482 4650 3482 4644 3491 C 4640 3498 4641 3501 4647 3497 C 4653 3493 4663 3497 4670 3505 C 4685 3523 4687 3523 4696 3508 z M 4672 3463 C 4666 3460 4663 3453 4667 3447 C 4671 3440 4666 3441 4657 3449 C 4636 3466 4636 3466 4663 3467 C 4675 3467 4679 3466 4672 3463 z" stroke-linecap="round" />
</g>
<g transform="matrix(0.13 0 0 -0.13 541.67 428.27)"  >
<path style="stroke: none; stroke-width: 1; stroke-dasharray: none; stroke-linecap: butt; stroke-dashoffset: 0; stroke-linejoin: miter; stroke-miterlimit: 4; fill: rgb(0,0,0); fill-rule: nonzero; opacity: 1;" vector-effect="non-scaling-stroke"  transform=" translate(-5132.5, -6467.96)" d="M 4808 6763 C 4807 6693 4806 6504 4805 6344 L 4805 6053 L 4980 6046 C 5235 6037 5337 6056 5402 6126 C 5432 6158 5460 6228 5460 6269 C 5460 6358 5391 6449 5307 6472 L 5260 6484 L 5313 6510 C 5373 6539 5406 6582 5415 6644 C 5429 6737 5372 6832 5282 6866 C 5244 6880 5193 6884 5023 6888 L 4810 6892 L 4808 6763 z M 5260 6788 C 5345 6745 5362 6648 5298 6574 C 5258 6528 5220 6520 5043 6520 L 4890 6520 L 4890 6665 L 4890 6810 L 5053 6810 C 5202 6810 5220 6808 5260 6788 z M 5255 6426 C 5314 6408 5357 6368 5371 6317 C 5390 6245 5363 6183 5296 6147 C 5259 6127 5237 6125 5073 6122 L 4890 6118 L 4890 6279 L 4890 6440 L 5048 6440 C 5158 6440 5222 6436 5255 6426 z" stroke-linecap="round" />
</g>
<g transform="matrix(0.13 0 0 -0.13 593.67 602.13)"  >
<path style="stroke: none; stroke-width: 1; stroke-dasharray: none; stroke-linecap: butt; stroke-dashoffset: 0; stroke-linejoin: miter; stroke-miterlimit: 4; fill: rgb(0,0,0); fill-rule: nonzero; opacity: 1;" vector-effect="non-scaling-stroke"  transform=" translate(-5522.5, -5164.02)" d="M 5487 5166 C 5491 5161 5481 5160 5466 5164 C 5451 5168 5440 5166 5440 5160 C 5440 5147 5460 5148 5540 5164 L 5605 5177 L 5543 5176 C 5510 5175 5484 5171 5487 5166 z" stroke-linecap="round" />
</g>
<g transform="matrix(0.13 0 0 -0.13 568 605.35)"  >
<path style="stroke: none; stroke-width: 1; stroke-dasharray: none; stroke-linecap: butt; stroke-dashoffset: 0; stroke-linejoin: miter; stroke-miterlimit: 4; fill: rgb(0,0,0); fill-rule: nonzero; opacity: 1;" vector-effect="non-scaling-stroke"  transform=" translate(-5330, -5139.9)" d="M 5275 5140 L 5225 5133 L 5275 5133 C 5303 5132 5350 5135 5380 5140 L 5435 5147 L 5380 5147 C 5350 5147 5303 5144 5275 5140 z" stroke-linecap="round" />
</g>
<g transform="matrix(0.13 0 0 -0.13 539.58 607.5)"  >
<path style="stroke: none; stroke-width: 1; stroke-dasharray: none; stroke-linecap: butt; stroke-dashoffset: 0; stroke-linejoin: miter; stroke-miterlimit: 4; fill: rgb(0,0,0); fill-rule: nonzero; opacity: 1;" vector-effect="non-scaling-stroke"  transform=" translate(-5116.82, -5123.75)" d="M 5063 5123 C 5095 5121 5144 5121 5173 5123 C 5202 5125 5176 5126 5115 5126 C 5055 5126 5031 5125 5063 5123 z" stroke-linecap="round" />
</g>
<g transform="matrix(0.13 0 0 -0.13 446.12 624.64)"  >
<path style="stroke: none; stroke-width: 1; stroke-dasharray: none; stroke-linecap: butt; stroke-dashoffset: 0; stroke-linejoin: miter; stroke-miterlimit: 4; fill: rgb(0,0,0); fill-rule: nonzero; opacity: 1;" vector-effect="non-scaling-stroke"  transform=" translate(-4415.86, -4995.19)" d="M 4408 4993 C 4415 4990 4424 4991 4427 4994 C 4431 4997 4425 5000 4414 4999 C 4403 4999 4400 4996 4408 4993 z" stroke-linecap="round" />
</g>
<g transform="matrix(0.13 0 0 -0.13 446.27 632.67)"  >
<path style="stroke: none; stroke-width: 1; stroke-dasharray: none; stroke-linecap: butt; stroke-dashoffset: 0; stroke-linejoin: miter; stroke-miterlimit: 4; fill: rgb(0,0,0); fill-rule: nonzero; opacity: 1;" vector-effect="non-scaling-stroke"  transform=" translate(-4416.99, -4934.97)" d="M 4407 4944 C 4399 4936 4408 4920 4421 4920 C 4426 4920 4430 4927 4430 4935 C 4430 4950 4418 4955 4407 4944 z" stroke-linecap="round" />
</g>
<g transform="matrix(0.13 0 0 -0.13 469.63 656.89)"  >
<path style="stroke: none; stroke-width: 1; stroke-dasharray: none; stroke-linecap: butt; stroke-dashoffset: 0; stroke-linejoin: miter; stroke-miterlimit: 4; fill: rgb(0,0,0); fill-rule: nonzero; opacity: 1;" vector-effect="non-scaling-stroke"  transform=" translate(-4592.18, -4753.29)" d="M 4485 4935 C 4490 4924 4493 4907 4494 4898 C 4494 4889 4498 4883 4501 4886 C 4505 4888 4511 4886 4515 4880 C 4518 4875 4517 4870 4512 4870 C 4507 4870 4498 4858 4491 4843 C 4482 4823 4482 4814 4491 4806 C 4500 4798 4501 4798 4496 4807 C 4488 4822 4498 4847 4515 4854 C 4525 4857 4527 4854 4523 4843 C 4519 4832 4521 4829 4528 4834 C 4539 4840 4545 4829 4541 4808 C 4541 4803 4546 4801 4553 4803 C 4559 4804 4564 4799 4563 4793 C 4561 4786 4569 4771 4581 4759 C 4592 4748 4599 4735 4595 4732 C 4592 4728 4585 4731 4581 4739 C 4568 4759 4562 4732 4571 4695 L 4578 4665 L 4580 4695 C 4582 4725 4582 4725 4590 4700 C 4598 4675 4598 4675 4600 4705 L 4602 4735 L 4612 4706 C 4618 4690 4631 4669 4642 4658 C 4652 4648 4658 4635 4655 4631 C 4653 4626 4657 4619 4666 4616 C 4676 4612 4680 4604 4676 4593 C 4672 4583 4672 4579 4676 4583 C 4680 4587 4689 4582 4697 4572 C 4705 4563 4697 4582 4679 4615 C 4661 4648 4642 4682 4635 4690 C 4628 4698 4621 4712 4618 4720 C 4615 4728 4582 4785 4545 4845 C 4508 4906 4481 4946 4485 4935 z" stroke-linecap="round" />
</g>
<g transform="matrix(0.13 0 0 -0.13 459.76 649.33)"  >
<path style="stroke: none; stroke-width: 1; stroke-dasharray: none; stroke-linecap: butt; stroke-dashoffset: 0; stroke-linejoin: miter; stroke-miterlimit: 4; fill: rgb(0,0,0); fill-rule: nonzero; opacity: 1;" vector-effect="non-scaling-stroke"  transform=" translate(-4518.2, -4810)" d="M 4510 4810 C 4510 4805 4515 4800 4521 4800 C 4526 4800 4528 4805 4525 4810 C 4522 4816 4517 4820 4514 4820 C 4512 4820 4510 4816 4510 4810 z" stroke-linecap="round" />
</g>
<g transform="matrix(0.13 0 0 -0.13 483.76 690.67)"  >
<path style="stroke: none; stroke-width: 1; stroke-dasharray: none; stroke-linecap: butt; stroke-dashoffset: 0; stroke-linejoin: miter; stroke-miterlimit: 4; fill: rgb(0,0,0); fill-rule: nonzero; opacity: 1;" vector-effect="non-scaling-stroke"  transform=" translate(-4698.2, -4500)" d="M 4690 4500 C 4690 4495 4695 4490 4701 4490 C 4706 4490 4708 4495 4705 4500 C 4702 4506 4697 4510 4694 4510 C 4692 4510 4690 4506 4690 4500 z" stroke-linecap="round" />
</g>
<g transform="matrix(0.13 0 0 -0.13 475.95 708.12)"  >
<path style="stroke: none; stroke-width: 1; stroke-dasharray: none; stroke-linecap: butt; stroke-dashoffset: 0; stroke-linejoin: miter; stroke-miterlimit: 4; fill: rgb(0,0,0); fill-rule: nonzero; opacity: 1;" vector-effect="non-scaling-stroke"  transform=" translate(-4639.6, -4369.12)" d="M 4597 4459 C 4576 4448 4557 4433 4554 4425 C 4544 4400 4559 4362 4580 4355 C 4591 4351 4600 4343 4599 4337 C 4596 4311 4601 4300 4614 4300 C 4623 4300 4626 4293 4623 4280 C 4619 4264 4623 4260 4643 4260 C 4657 4260 4671 4264 4674 4269 C 4678 4274 4671 4276 4660 4273 C 4631 4265 4634 4294 4665 4314 C 4681 4324 4699 4328 4712 4324 C 4736 4317 4733 4338 4707 4354 C 4694 4362 4681 4360 4655 4346 C 4610 4322 4598 4333 4633 4366 C 4660 4390 4669 4433 4650 4445 C 4645 4448 4643 4457 4647 4465 C 4654 4484 4644 4483 4597 4459 z M 4625 4414 C 4638 4394 4639 4385 4630 4376 C 4621 4368 4614 4371 4599 4389 C 4589 4402 4580 4418 4580 4426 C 4580 4449 4607 4442 4625 4414 z" stroke-linecap="round" />
</g>
<g transform="matrix(0.13 0 0 -0.13 485.82 697.93)"  >
<path style="stroke: none; stroke-width: 1; stroke-dasharray: none; stroke-linecap: butt; stroke-dashoffset: 0; stroke-linejoin: miter; stroke-miterlimit: 4; fill: rgb(0,0,0); fill-rule: nonzero; opacity: 1;" vector-effect="non-scaling-stroke"  transform=" translate(-4713.63, -4445.5)" d="M 4690 4461 C 4690 4440 4713 4416 4723 4427 C 4727 4430 4730 4427 4730 4420 C 4730 4413 4733 4409 4736 4412 C 4744 4420 4712 4480 4700 4480 C 4694 4480 4690 4472 4690 4461 z" stroke-linecap="round" />
</g>
<g transform="matrix(0.13 0 0 -0.13 464.64 733.89)"  >
<path style="stroke: none; stroke-width: 1; stroke-dasharray: none; stroke-linecap: butt; stroke-dashoffset: 0; stroke-linejoin: miter; stroke-miterlimit: 4; fill: rgb(0,0,0); fill-rule: nonzero; opacity: 1;" vector-effect="non-scaling-stroke"  transform=" translate(-4554.81, -4175.86)" d="M 4551 4174 C 4551 4163 4554 4160 4557 4168 C 4560 4175 4559 4184 4556 4187 C 4553 4191 4550 4185 4551 4174 z" stroke-linecap="round" />
</g>
<g transform="matrix(0.13 0 0 -0.13 512.24 742.67)"  >
<path style="stroke: none; stroke-width: 1; stroke-dasharray: none; stroke-linecap: butt; stroke-dashoffset: 0; stroke-linejoin: miter; stroke-miterlimit: 4; fill: rgb(0,0,0); fill-rule: nonzero; opacity: 1;" vector-effect="non-scaling-stroke"  transform=" translate(-4911.8, -4110)" d="M 4905 4110 C 4902 4105 4904 4100 4909 4100 C 4915 4100 4920 4105 4920 4110 C 4920 4116 4918 4120 4916 4120 C 4913 4120 4908 4116 4905 4110 z" stroke-linecap="round" />
</g>
<g transform="matrix(0.13 0 0 -0.13 480.67 766.67)"  >
<path style="stroke: none; stroke-width: 1; stroke-dasharray: none; stroke-linecap: butt; stroke-dashoffset: 0; stroke-linejoin: miter; stroke-miterlimit: 4; fill: rgb(0,0,0); fill-rule: nonzero; opacity: 1;" vector-effect="non-scaling-stroke"  transform=" translate(-4675, -3930)" d="M 4660 3930 C 4660 3925 4667 3920 4675 3920 C 4683 3920 4690 3925 4690 3930 C 4690 3936 4683 3940 4675 3940 C 4667 3940 4660 3936 4660 3930 z" stroke-linecap="round" />
</g>
<g transform="matrix(0.13 0 0 -0.13 489.97 778.7)"  >
<path style="stroke: none; stroke-width: 1; stroke-dasharray: none; stroke-linecap: butt; stroke-dashoffset: 0; stroke-linejoin: miter; stroke-miterlimit: 4; fill: rgb(0,0,0); fill-rule: nonzero; opacity: 1;" vector-effect="non-scaling-stroke"  transform=" translate(-4744.76, -3839.74)" d="M 4720 3855 C 4720 3847 4727 3840 4735 3840 C 4743 3840 4750 3833 4750 3825 C 4750 3817 4755 3810 4760 3810 C 4775 3810 4772 3827 4753 3850 C 4732 3874 4720 3876 4720 3855 z" stroke-linecap="round" />
</g>
<g transform="matrix(0.13 0 0 -0.13 496.64 787.22)"  >
<path style="stroke: none; stroke-width: 1; stroke-dasharray: none; stroke-linecap: butt; stroke-dashoffset: 0; stroke-linejoin: miter; stroke-miterlimit: 4; fill: rgb(0,0,0); fill-rule: nonzero; opacity: 1;" vector-effect="non-scaling-stroke"  transform=" translate(-4794.81, -3775.86)" d="M 4791 3774 C 4791 3763 4794 3760 4797 3768 C 4800 3775 4799 3784 4796 3787 C 4793 3791 4790 3785 4791 3774 z" stroke-linecap="round" />
</g>
<g transform="matrix(0.13 0 0 -0.13 498.49 791.16)"  >
<path style="stroke: none; stroke-width: 1; stroke-dasharray: none; stroke-linecap: butt; stroke-dashoffset: 0; stroke-linejoin: miter; stroke-miterlimit: 4; fill: rgb(0,0,0); fill-rule: nonzero; opacity: 1;" vector-effect="non-scaling-stroke"  transform=" translate(-4808.66, -3746.32)" d="M 4805 3749 C 4801 3743 4800 3737 4803 3734 C 4805 3731 4810 3736 4813 3745 C 4820 3762 4814 3765 4805 3749 z" stroke-linecap="round" />
</g>
<g transform="matrix(0.13 0 0 -0.13 502.73 795.28)"  >
<path style="stroke: none; stroke-width: 1; stroke-dasharray: none; stroke-linecap: butt; stroke-dashoffset: 0; stroke-linejoin: miter; stroke-miterlimit: 4; fill: rgb(0,0,0); fill-rule: nonzero; opacity: 1;" vector-effect="non-scaling-stroke"  transform=" translate(-4840.49, -3715.4)" d="M 4824 3736 C 4816 3722 4810 3701 4813 3688 C 4817 3666 4817 3666 4819 3690 C 4821 3718 4838 3744 4860 3753 C 4872 3757 4872 3759 4858 3759 C 4848 3760 4833 3749 4824 3736 z" stroke-linecap="round" />
</g>
<g transform="matrix(0.13 0 0 -0.13 618.67 657.09)"  >
<path style="stroke: none; stroke-width: 1; stroke-dasharray: none; stroke-linecap: butt; stroke-dashoffset: 0; stroke-linejoin: miter; stroke-miterlimit: 4; fill: rgb(0,0,0); fill-rule: nonzero; opacity: 1;" vector-effect="non-scaling-stroke"  transform=" translate(-5710, -4751.8)" d="M 5700 4749 C 5700 4744 5705 4742 5710 4745 C 5716 4748 5720 4753 5720 4756 C 5720 4758 5716 4760 5710 4760 C 5705 4760 5700 4755 5700 4749 z" stroke-linecap="round" />
</g>
<g transform="matrix(0.13 0 0 -0.13 590.86 696.88)"  >
<path style="stroke: none; stroke-width: 1; stroke-dasharray: none; stroke-linecap: butt; stroke-dashoffset: 0; stroke-linejoin: miter; stroke-miterlimit: 4; fill: rgb(0,0,0); fill-rule: nonzero; opacity: 1;" vector-effect="non-scaling-stroke"  transform=" translate(-5501.42, -4453.43)" d="M 5625 4661 C 5622 4655 5615 4652 5610 4655 C 5605 4658 5585 4630 5564 4593 C 5544 4555 5502 4482 5470 4430 C 5386 4290 5359 4240 5364 4240 C 5367 4240 5384 4264 5401 4294 C 5419 4324 5438 4346 5444 4343 C 5449 4339 5450 4342 5446 4349 C 5441 4356 5445 4369 5453 4378 C 5460 4387 5470 4403 5473 4413 C 5477 4423 5485 4428 5490 4425 C 5497 4421 5493 4406 5480 4384 C 5468 4365 5463 4350 5469 4350 C 5474 4350 5482 4359 5485 4370 C 5488 4381 5495 4390 5500 4390 C 5509 4390 5507 4416 5497 4426 C 5484 4439 5490 4453 5504 4441 C 5515 4432 5516 4435 5512 4455 C 5508 4478 5516 4486 5543 4481 C 5548 4480 5549 4484 5545 4490 C 5541 4496 5544 4508 5552 4517 C 5563 4531 5563 4533 5551 4525 C 5540 4519 5538 4521 5543 4534 C 5547 4544 5550 4553 5550 4556 C 5550 4558 5558 4556 5568 4553 C 5583 4547 5583 4548 5571 4563 C 5558 4580 5558 4581 5583 4584 C 5589 4585 5595 4594 5596 4605 C 5598 4644 5600 4651 5608 4646 C 5618 4640 5646 4657 5638 4665 C 5635 4669 5629 4666 5625 4661 z" stroke-linecap="round" />
</g>
<g transform="matrix(0.13 0 0 -0.13 562.5 749.47)"  >
<path style="stroke: none; stroke-width: 1; stroke-dasharray: none; stroke-linecap: butt; stroke-dashoffset: 0; stroke-linejoin: miter; stroke-miterlimit: 4; fill: rgb(0,0,0); fill-rule: nonzero; opacity: 1;" vector-effect="non-scaling-stroke"  transform=" translate(-5288.76, -4058.96)" d="M 5286 4110 L 5219 3991 L 5245 3940 C 5260 3911 5273 3890 5276 3892 C 5278 3895 5273 3912 5264 3930 C 5254 3948 5246 3977 5244 3994 C 5241 4022 5242 4023 5254 4008 C 5261 3998 5270 3993 5273 3997 C 5277 4000 5272 4008 5263 4015 C 5254 4022 5250 4032 5255 4040 C 5261 4050 5265 4049 5272 4039 C 5280 4028 5281 4029 5276 4043 C 5269 4064 5279 4092 5291 4085 C 5304 4076 5331 4125 5324 4145 C 5319 4158 5320 4161 5329 4156 C 5337 4151 5340 4153 5339 4161 C 5337 4169 5342 4186 5349 4198 C 5356 4211 5360 4223 5358 4226 C 5356 4228 5324 4176 5286 4110 z M 5306 4108 C 5297 4096 5290 4089 5290 4093 C 5290 4104 5314 4140 5318 4135 C 5320 4133 5315 4121 5306 4108 z" stroke-linecap="round" />
</g>
<g transform="matrix(0.13 0 0 -0.13 570.38 744.41)"  >
<path style="stroke: none; stroke-width: 1; stroke-dasharray: none; stroke-linecap: butt; stroke-dashoffset: 0; stroke-linejoin: miter; stroke-miterlimit: 4; fill: rgb(0,0,0); fill-rule: nonzero; opacity: 1;" vector-effect="non-scaling-stroke"  transform=" translate(-5347.82, -4096.9)" d="M 5340 4101 C 5340 4095 5344 4088 5350 4085 C 5356 4082 5357 4086 5354 4094 C 5347 4112 5340 4115 5340 4101 z" stroke-linecap="round" />
</g>
<g transform="matrix(0.13 0 0 -0.13 560 763.42)"  >
<path style="stroke: none; stroke-width: 1; stroke-dasharray: none; stroke-linecap: butt; stroke-dashoffset: 0; stroke-linejoin: miter; stroke-miterlimit: 4; fill: rgb(0,0,0); fill-rule: nonzero; opacity: 1;" vector-effect="non-scaling-stroke"  transform=" translate(-5270, -3954.34)" d="M 5261 3970 C 5261 3962 5265 3948 5270 3940 C 5282 3922 5282 3938 5270 3965 C 5264 3978 5261 3980 5261 3970 z" stroke-linecap="round" />
</g>
<g transform="matrix(-0.07 0.12 0.12 0.07 754.67 790.1)"  >
<path style="stroke: none; stroke-width: 1; stroke-dasharray: none; stroke-linecap: butt; stroke-dashoffset: 0; stroke-linejoin: miter; stroke-miterlimit: 4; fill: rgb(0,0,0); fill-rule: nonzero; opacity: 1;" vector-effect="non-scaling-stroke"  transform=" translate(-6730, -3754.24)" d="M 6357 4183 C 6353 4180 6350 3984 6350 3748 L 6350 3319 L 6573 3322 L 6795 3325 L 6861 3356 C 7016 3430 7110 3578 7110 3748 C 7109 3976 6955 4150 6729 4180 C 6644 4191 6367 4193 6357 4183 z M 6804 4080 C 6887 4048 6970 3966 7000 3885 C 7030 3803 7030 3697 6999 3615 C 6969 3534 6887 3451 6807 3422 C 6757 3403 6729 3400 6596 3400 L 6442 3400 L 6436 3603 C 6431 3755 6433 4054 6440 4109 C 6440 4111 6509 4110 6593 4108 C 6719 4103 6755 4099 6804 4080 z" stroke-linecap="round" />
</g>
<g transform="matrix(0.13 0 0 -0.13 326.61 792.46)"  >
<path style="stroke: none; stroke-width: 1; stroke-dasharray: none; stroke-linecap: butt; stroke-dashoffset: 0; stroke-linejoin: miter; stroke-miterlimit: 4; fill: rgb(0,0,0); fill-rule: nonzero; opacity: 1;" vector-effect="non-scaling-stroke"  transform=" translate(-3519.58, -3736.54)" d="M 3433 4165 C 3348 4146 3280 4108 3216 4040 C 3155 3976 3126 3926 3105 3843 C 3053 3642 3148 3431 3333 3341 C 3598 3210 3891 3368 3942 3667 C 3980 3897 3843 4105 3613 4165 C 3545 4183 3515 4183 3433 4165 z M 3647 4068 C 3686 4054 3721 4031 3755 3996 C 3908 3843 3904 3607 3746 3463 C 3544 3279 3231 3396 3179 3674 C 3167 3743 3173 3801 3202 3878 C 3229 3951 3318 4040 3391 4068 C 3466 4097 3571 4097 3647 4068 z" stroke-linecap="round" />
</g>
<g transform="matrix(0.13 0 0 -0.13 487.4 159.4)"  >
<path style="stroke: none; stroke-width: 1; stroke-dasharray: none; stroke-linecap: butt; stroke-dashoffset: 0; stroke-linejoin: miter; stroke-miterlimit: 4; fill: rgb(0,0,0); fill-rule: nonzero; opacity: 1;" vector-effect="non-scaling-stroke"  transform=" translate(-4725.46, -8484.53)" d="M 4720 8484 C 4662 8460 4618 8440 4622 8440 C 4647 8439 4785 8472 4797 8481 C 4809 8492 4835 8531 4828 8529 C 4826 8529 4778 8509 4720 8484 z" stroke-linecap="round" />
</g>
<g transform="matrix(0.13 0 0 -0.13 595.6 160.62)"  >
<path style="stroke: none; stroke-width: 1; stroke-dasharray: none; stroke-linecap: butt; stroke-dashoffset: 0; stroke-linejoin: miter; stroke-miterlimit: 4; fill: rgb(0,0,0); fill-rule: nonzero; opacity: 1;" vector-effect="non-scaling-stroke"  transform=" translate(-5536.96, -8475.34)" d="M 5429 8511 C 5446 8480 5464 8471 5543 8455 C 5586 8446 5629 8437 5638 8434 C 5666 8426 5622 8446 5518 8489 C 5441 8520 5422 8525 5429 8511 z" stroke-linecap="round" />
</g>
<g transform="matrix(0.13 0 0 -0.13 1019.06 878.93)"  >
<path style="stroke: none; stroke-width: 1; stroke-dasharray: none; stroke-linecap: butt; stroke-dashoffset: 0; stroke-linejoin: miter; stroke-miterlimit: 4; fill: rgb(0,0,0); fill-rule: nonzero; opacity: 1;" vector-effect="non-scaling-stroke"  transform=" translate(-8712.93, -3088.04)" d="M 8719 3118 C 8663 2984 8664 2987 8677 2983 C 8684 2980 8693 2979 8697 2979 C 8703 2979 8760 3191 8756 3197 C 8755 3199 8738 3163 8719 3118 z" stroke-linecap="round" />
</g>
<g transform="matrix(0.13 0 0 -0.13 62.91 881.73)"  >
<path style="stroke: none; stroke-width: 1; stroke-dasharray: none; stroke-linecap: butt; stroke-dashoffset: 0; stroke-linejoin: miter; stroke-miterlimit: 4; fill: rgb(0,0,0); fill-rule: nonzero; opacity: 1;" vector-effect="non-scaling-stroke"  transform=" translate(-1541.82, -3067)" d="M 1504 3160 C 1507 3146 1517 3099 1527 3055 C 1536 3011 1544 2974 1545 2972 C 1550 2965 1580 2984 1580 2994 C 1580 3001 1562 3046 1539 3095 C 1517 3145 1501 3174 1504 3160 z" stroke-linecap="round" />
</g>
</svg>