<?xml version="1.0" standalone="no"?>
<!DOCTYPE svg PUBLIC "-//W3C//DTD SVG 20010904//EN"
 "http://www.w3.org/TR/2001/REC-SVG-20010904/DTD/svg10.dtd">
<svg version="1.0" xmlns="http://www.w3.org/2000/svg"
 width="255.000000pt" height="197.000000pt" viewBox="0 0 255.000000 197.000000"
 preserveAspectRatio="xMidYMid meet">

<g transform="translate(0.000000,197.000000) scale(0.100000,-0.100000)"
fill="#000000" stroke="none">
<path d="M1639 1860 c-60 -18 -173 -109 -199 -160 -28 -55 -34 -103 -17 -136
8 -16 12 -36 9 -44 -2 -8 11 -1 29 17 49 46 104 66 181 66 37 1 70 -2 74 -6
18 -18 30 -102 23 -168 -8 -67 -6 -73 26 -138 35 -69 89 -125 113 -116 22 8
61 -24 64 -54 3 -26 5 -27 36 -19 25 7 32 14 32 33 0 13 -4 27 -10 30 -15 9
-12 25 5 25 8 0 19 -15 24 -32 l9 -33 1 30 c0 33 -14 56 -45 73 -16 8 -24 8
-32 0 -9 -9 -12 -8 -12 4 0 20 32 32 59 23 11 -3 32 -22 47 -42 22 -29 29 -51
33 -107 6 -73 21 -105 61 -133 17 -12 19 -17 9 -24 -8 -4 -14 -16 -15 -26 -4
-62 -240 -359 -333 -417 -33 -21 -38 -22 -73 -8 -49 19 -46 38 17 92 78 67
158 150 152 156 -3 3 -12 2 -19 -2 -20 -13 -36 -16 -128 -24 -109 -10 -141
-15 -149 -26 -3 -5 -17 -11 -31 -12 -13 -2 -30 -11 -36 -20 -11 -14 -15 -15
-26 -3 -10 11 -10 14 0 18 6 3 12 10 12 17 0 7 10 18 23 25 19 10 22 20 22 75
0 35 -3 62 -7 60 -3 -2 -10 9 -16 24 -11 32 -99 172 -108 172 -3 0 -3 -13 1
-30 10 -43 0 -52 -40 -33 -28 13 -37 14 -49 3 -9 -7 -13 -16 -10 -21 10 -17
-16 -9 -37 12 -11 11 -18 27 -15 35 3 9 1 12 -4 9 -15 -9 -12 -36 5 -55 13
-14 12 -20 -12 -53 -30 -43 -36 -39 -52 35 -6 27 -7 57 -2 75 6 19 4 37 -4 52
-20 38 -26 1 -14 -87 17 -127 18 -142 8 -142 -5 0 -9 -8 -9 -17 0 -16 2 -16
11 -3 8 11 9 8 4 -13 -3 -16 -2 -26 2 -24 4 3 9 -36 10 -87 1 -73 6 -100 22
-130 12 -20 19 -41 16 -47 -3 -5 1 -6 9 -3 10 4 16 1 16 -9 0 -20 -141 -88
-197 -95 -58 -6 -73 6 -97 85 -5 16 -2 23 14 28 11 4 29 24 40 46 19 37 50 53
50 27 0 -16 33 31 65 93 l24 46 -25 22 c-17 15 -24 17 -24 7 0 -8 5 -16 11
-18 8 -3 9 -13 4 -28 -6 -20 -9 -21 -19 -9 -6 8 -18 14 -26 15 -8 1 -25 4 -37
8 -14 5 -23 3 -23 -3 0 -6 6 -11 14 -11 9 0 14 -9 13 -20 -1 -15 -7 -20 -23
-18 -12 1 -29 -3 -38 -11 -10 -9 -16 -10 -16 -2 0 6 4 11 9 11 11 0 22 38 13
44 -10 6 -52 -30 -52 -43 0 -6 -4 -11 -10 -11 -5 0 -10 4 -10 9 0 5 -9 7 -20
4 -11 -3 -20 -12 -20 -19 0 -12 -19 -19 -42 -15 -5 0 -8 -5 -8 -13 0 -8 -7
-17 -16 -20 -8 -3 -12 -11 -9 -17 5 -7 15 -3 29 10 22 21 73 30 61 11 -4 -6
-9 -8 -13 -6 -4 2 -15 -2 -25 -9 -16 -12 -16 -13 3 -18 11 -3 20 -10 20 -16 0
-15 -30 -14 -30 2 -1 6 -9 2 -19 -10 -14 -17 -21 -19 -30 -10 -9 9 -16 7 -30
-12 -17 -23 -19 -23 -32 -5 -18 24 -59 48 -67 39 -4 -3 0 -10 8 -15 25 -16 -2
-33 -33 -21 -21 8 -28 7 -36 -7 -10 -16 -10 -16 -11 1 0 23 -27 22 -40 -2 -5
-11 -10 -37 -11 -58 0 -32 -2 -35 -9 -16 -8 20 -12 21 -40 10 -27 -10 -28 -12
-10 -19 16 -6 18 -11 10 -30 -6 -13 -13 -30 -16 -40 -3 -9 -15 -18 -25 -21
-17 -5 -18 -3 -8 9 6 8 9 17 5 21 -10 10 -18 -4 -18 -32 0 -19 -6 -25 -23 -25
-13 0 -25 5 -27 12 -2 6 -15 13 -29 15 -17 2 -20 0 -10 -6 16 -10 24 -81 10
-81 -6 0 -7 5 -3 12 5 8 2 9 -10 5 -10 -4 -20 -7 -23 -7 -4 0 2 -9 12 -20 10
-11 24 -20 32 -20 19 0 16 -17 -4 -29 -16 -9 -17 -10 -1 -11 17 0 35 -36 24
-47 -3 -4 -6 1 -6 10 0 23 -13 21 -35 -3 -10 -11 -28 -20 -41 -20 -13 0 -25
-4 -28 -8 -7 -12 10 -35 22 -28 15 9 42 -4 42 -21 0 -13 -3 -13 -15 -3 -11 10
-18 10 -29 1 -8 -7 -16 -8 -18 -4 -3 4 -3 2 -2 -5 4 -13 -2 -16 -47 -26 -20
-4 -27 -12 -27 -31 0 -14 4 -25 9 -25 5 0 9 9 9 20 0 11 5 20 10 20 6 0 10 -9
10 -20 0 -20 7 -20 284 -20 254 0 327 6 284 23 -9 4 -9 6 -1 6 6 1 18 -6 27
-14 13 -13 120 -15 845 -15 l831 0 0 563 0 564 -23 12 c-13 7 -30 12 -38 11
-51 -8 -81 12 -39 25 32 10 23 26 -12 23 -29 -2 -83 -38 -58 -38 6 0 10 -7 10
-15 0 -8 -7 -15 -15 -15 -8 0 -15 5 -15 10 0 6 -5 10 -11 10 -6 0 -8 -8 -5
-17 7 -23 -8 -48 -23 -39 -7 5 -9 1 -5 -8 3 -9 1 -16 -5 -16 -7 0 -11 21 -11
53 0 140 -11 378 -19 399 -8 22 -52 76 -116 143 -75 78 -274 159 -386 156 -40
-1 -47 2 -57 24 -12 26 -34 30 -83 15z m-69 -84 c0 -15 -24 -28 -34 -19 -3 4
-6 11 -6 17 0 6 5 4 10 -4 8 -13 10 -12 10 3 0 9 5 17 10 17 6 0 10 -6 10 -14z
m720 -434 c0 -3 -7 3 -15 14 -8 10 -14 28 -14 39 0 14 4 10 14 -14 8 -18 15
-36 15 -39z m-317 -156 c4 -10 0 -12 -14 -9 -22 6 -26 23 -5 23 8 0 16 -6 19
-14z m440 -27 c-4 -15 -8 -17 -14 -8 -8 14 -3 29 11 29 4 0 6 -9 3 -21z m-455
-14 c-3 -3 -9 2 -12 12 -6 14 -5 15 5 6 7 -7 10 -15 7 -18z m452 -24 c0 -5 -6
-14 -14 -20 -12 -10 -13 -8 -9 8 5 21 23 30 23 12z m40 -11 c0 -5 -4 -10 -10
-10 -5 0 -10 5 -10 10 0 6 5 10 10 10 6 0 10 -4 10 -10z m-73 -62 c-3 -8 -6
-5 -6 6 -1 11 2 17 5 13 3 -3 4 -12 1 -19z m50 -30 c-3 -8 -6 -5 -6 6 -1 11 2
17 5 13 3 -3 4 -12 1 -19z m-957 -80 c0 -6 -7 -7 -16 -4 -9 3 -18 6 -20 6 -3
0 -3 4 1 10 7 11 35 2 35 -12z m30 -18 c0 -5 -5 -10 -11 -10 -5 0 -7 5 -4 10
3 6 8 10 11 10 2 0 4 -4 4 -10z m24 -26 c3 -8 2 -12 -4 -9 -6 3 -10 10 -10 16
0 14 7 11 14 -7z m-84 -24 c-6 -11 -15 -20 -20 -20 -6 0 -2 9 7 20 10 11 19
20 21 20 1 0 -2 -9 -8 -20z m-10 -50 c0 -5 -5 -10 -11 -10 -5 0 -7 5 -4 10 3
6 8 10 11 10 2 0 4 -4 4 -10z m-475 -150 c3 -5 1 -10 -4 -10 -6 0 -11 5 -11
10 0 6 2 10 4 10 3 0 8 -4 11 -10z m-395 -345 c0 -8 -4 -15 -10 -15 -5 0 -10
7 -10 15 0 8 5 15 10 15 6 0 10 -7 10 -15z"/>
<path d="M1409 1473 c-6 -16 -24 -64 -39 -108 -15 -44 -36 -102 -48 -130 -11
-27 -23 -62 -26 -77 -4 -17 -13 -28 -24 -28 -16 -1 -16 -1 1 -11 14 -8 16 -14
6 -25 -8 -10 -8 -14 0 -14 6 0 11 -9 11 -20 0 -31 12 -24 48 30 34 53 46 58
78 35 12 -8 24 -11 28 -8 3 3 6 2 6 -4 0 -6 13 -15 28 -21 26 -9 31 -7 57 25
20 26 24 37 15 43 -9 6 -9 9 0 15 7 4 16 2 20 -5 4 -7 15 -10 24 -7 14 5 13
11 -6 46 -12 22 -24 39 -27 39 -6 -1 -24 5 -69 23 -13 5 -32 9 -44 9 -37 0
-68 72 -35 82 8 3 12 27 12 71 1 37 0 67 -2 67 -2 0 -8 -12 -14 -27z m116
-282 c3 -5 1 -12 -5 -16 -5 -3 -10 1 -10 9 0 18 6 21 15 7z"/>
<path d="M2450 1259 c0 -6 8 -21 18 -34 l18 -22 11 23 c10 21 9 24 -8 24 -10
0 -19 5 -19 10 0 6 -4 10 -10 10 -5 0 -10 -5 -10 -11z"/>
<path d="M1985 1090 c-7 -11 2 -30 15 -30 4 0 10 6 13 14 6 16 -19 30 -28 16z"/>
<path d="M1927 1021 c-17 -6 -17 -8 -3 -20 8 -7 22 -11 31 -9 13 2 14 6 3 19
-8 11 -20 14 -31 10z"/>
<path d="M985 760 c3 -5 8 -10 11 -10 2 0 4 5 4 10 0 6 -5 10 -11 10 -5 0 -7
-4 -4 -10z"/>
<path d="M885 690 c4 -6 11 -8 16 -5 14 9 11 15 -7 15 -8 0 -12 -5 -9 -10z"/>
<path d="M311 254 c0 -11 3 -14 6 -6 3 7 2 16 -1 19 -3 4 -6 -2 -5 -13z"/>
<path d="M300 190 c0 -5 5 -10 10 -10 6 0 10 5 10 10 0 6 -4 10 -10 10 -5 0
-10 -4 -10 -10z"/>
</g>
</svg>
